<svg data-v-29081953="" xmlns="http://www.w3.org/2000/svg" viewBox="0 0 300 300"><!----><defs data-v-29081953=""><linearGradient data-v-29081953="" gradientTransform="rotate(25)" id="37625b75-d77d-4afc-8f33-61ab6e2224f5" x1="0%" y1="0%" x2="100%" y2="0%"><stop data-v-29081953="" offset="0%" stop-color="#49247E" stop-opacity="1"></stop><stop data-v-29081953="" offset="100%" stop-color="#AA49C7" stop-opacity="1"></stop></linearGradient></defs><rect data-v-29081953="" fill="url(#37625b75-d77d-4afc-8f33-61ab6e2224f5)" x="0" y="0" width="300px" height="300px" class="logo-background-square"></rect><defs data-v-29081953=""><!----></defs><g data-v-29081953="" id="f0d9f64c-200e-422f-89be-dbc197313f13" fill="#ffffff" transform="matrix(4.7127063373069245,0,0,4.7127063373069245,13.40221124012998,178.2985342714986)"><path d="M9.35 2.13L9.35 2.13Q9.35 1.81 9.56 1.60L9.56 1.60L9.56 1.60Q9.77 1.40 10.08 1.40L10.08 1.40L10.08 1.40Q10.39 1.40 10.59 1.60L10.59 1.60L10.59 1.60Q10.79 1.81 10.79 2.13L10.79 2.13L10.79 11.61L10.79 11.61Q10.79 11.93 10.59 12.13L10.59 12.13L10.59 12.13Q10.39 12.33 10.08 12.33L10.08 12.33L10.08 12.33Q9.77 12.33 9.56 12.12L9.56 12.12L9.56 12.12Q9.35 11.91 9.35 11.61L9.35 11.61L9.35 7.43L2.86 7.43L2.86 11.61L2.86 11.61Q2.86 11.91 2.65 12.12L2.65 12.12L2.65 12.12Q2.45 12.33 2.13 12.33L2.13 12.33L2.13 12.33Q1.82 12.33 1.61 12.12L1.61 12.12L1.61 12.12Q1.40 11.91 1.40 11.61L1.40 11.61L1.40 2.13L1.40 2.13Q1.40 1.81 1.61 1.60L1.61 1.60L1.61 1.60Q1.82 1.40 2.13 1.40L2.13 1.40L2.13 1.40Q2.45 1.40 2.65 1.60L2.65 1.60L2.65 1.60Q2.86 1.81 2.86 2.13L2.86 2.13L2.86 6.15L9.35 6.15L9.35 2.13ZM20.33 8.39L20.33 8.39Q20.33 8.65 20.15 8.83L20.15 8.83L20.15 8.83Q19.96 9.00 19.68 9.00L19.68 9.00L14.36 9.00L14.36 9.00Q14.52 9.98 15.25 10.58L15.25 10.58L15.25 10.58Q15.99 11.19 17.05 11.19L17.05 11.19L17.05 11.19Q17.47 11.19 17.93 11.03L17.93 11.03L17.93 11.03Q18.38 10.88 18.68 10.65L18.68 10.65L18.68 10.65Q18.87 10.50 19.14 10.50L19.14 10.50L19.14 10.50Q19.40 10.50 19.56 10.64L19.56 10.64L19.56 10.64Q19.81 10.85 19.81 11.12L19.81 11.12L19.81 11.12Q19.81 11.37 19.59 11.54L19.59 11.54L19.59 11.54Q19.11 11.91 18.40 12.15L18.40 12.15L18.40 12.15Q17.70 12.39 17.05 12.39L17.05 12.39L17.05 12.39Q15.90 12.39 14.99 11.89L14.99 11.89L14.99 11.89Q14.08 11.40 13.57 10.51L13.57 10.51L13.57 10.51Q13.06 9.63 13.06 8.51L13.06 8.51L13.06 8.51Q13.06 7.39 13.55 6.50L13.55 6.50L13.55 6.50Q14.03 5.61 14.89 5.12L14.89 5.12L14.89 5.12Q15.75 4.62 16.84 4.62L16.84 4.62L16.84 4.62Q17.92 4.62 18.70 5.10L18.70 5.10L18.70 5.10Q19.49 5.57 19.91 6.43L19.91 6.43L19.91 6.43Q20.33 7.28 20.33 8.39L20.33 8.39ZM16.84 5.82L16.84 5.82Q15.82 5.82 15.18 6.38L15.18 6.38L15.18 6.38Q14.55 6.94 14.38 7.88L14.38 7.88L19.04 7.88L19.04 7.88Q18.91 6.94 18.34 6.38L18.34 6.38L18.34 6.38Q17.77 5.82 16.84 5.82L16.84 5.82ZM25.90 4.59L25.90 4.59Q26.64 4.59 27.06 4.82L27.06 4.82L27.06 4.82Q27.48 5.04 27.48 5.38L27.48 5.38L27.48 5.38Q27.48 5.47 27.47 5.52L27.47 5.52L27.47 5.52Q27.34 5.96 26.91 5.96L26.91 5.96L26.91 5.96Q26.84 5.96 26.70 5.94L26.70 5.94L26.70 5.94Q26.14 5.84 25.79 5.84L25.79 5.84L25.79 5.84Q24.78 5.84 24.16 6.30L24.16 6.30L24.16 6.30Q23.55 6.76 23.55 7.55L23.55 7.55L23.55 11.63L23.55 11.63Q23.55 11.97 23.37 12.15L23.37 12.15L23.37 12.15Q23.20 12.33 22.85 12.33L22.85 12.33L22.85 12.33Q22.51 12.33 22.33 12.16L22.33 12.16L22.33 12.16Q22.15 11.98 22.15 11.63L22.15 11.63L22.15 5.38L22.15 5.38Q22.15 5.04 22.33 4.86L22.33 4.86L22.33 4.86Q22.51 4.68 22.85 4.68L22.85 4.68L22.85 4.68Q23.55 4.68 23.55 5.38L23.55 5.38L23.55 5.64L23.55 5.64Q23.97 5.15 24.58 4.87L24.58 4.87L24.58 4.87Q25.20 4.59 25.90 4.59L25.90 4.59ZM37.00 4.61L37.00 4.61Q38.22 4.61 38.97 5.40L38.97 5.40L38.97 5.40Q39.72 6.20 39.72 7.63L39.72 7.63L39.72 11.63L39.72 11.63Q39.72 11.94 39.52 12.14L39.52 12.14L39.52 12.14Q39.33 12.35 39.00 12.35L39.00 12.35L39.00 12.35Q38.70 12.35 38.49 12.14L38.49 12.14L38.49 12.14Q38.29 11.94 38.29 11.63L38.29 11.63L38.29 7.63L38.29 7.63Q38.29 6.78 37.86 6.33L37.86 6.33L37.86 6.33Q37.44 5.89 36.72 5.89L36.72 5.89L36.72 5.89Q35.99 5.89 35.52 6.40L35.52 6.40L35.52 6.40Q35.06 6.90 35.06 7.69L35.06 7.69L35.06 11.63L35.06 11.63Q35.06 11.94 34.86 12.14L34.86 12.14L34.86 12.14Q34.66 12.35 34.34 12.35L34.34 12.35L34.34 12.35Q34.03 12.35 33.83 12.14L33.83 12.14L33.83 12.14Q33.63 11.94 33.63 11.63L33.63 11.63L33.63 7.63L33.63 7.63Q33.63 6.78 33.20 6.33L33.20 6.33L33.20 6.33Q32.77 5.89 32.06 5.89L32.06 5.89L32.06 5.89Q31.32 5.89 30.85 6.40L30.85 6.40L30.85 6.40Q30.38 6.90 30.38 7.69L30.38 7.69L30.38 11.63L30.38 11.63Q30.38 11.94 30.18 12.14L30.18 12.14L30.18 12.14Q29.99 12.35 29.67 12.35L29.67 12.35L29.67 12.35Q29.36 12.35 29.16 12.14L29.16 12.14L29.16 12.14Q28.95 11.94 28.95 11.63L28.95 11.63L28.95 5.40L28.95 5.40Q28.95 5.08 29.16 4.89L29.16 4.89L29.16 4.89Q29.36 4.69 29.67 4.69L29.67 4.69L29.67 4.69Q29.97 4.69 30.17 4.88L30.17 4.88L30.17 4.88Q30.37 5.07 30.38 5.38L30.38 5.38L30.38 5.38Q30.74 5.01 31.25 4.81L31.25 4.81L31.25 4.81Q31.75 4.61 32.34 4.61L32.34 4.61L32.34 4.61Q33.05 4.61 33.62 4.89L33.62 4.89L33.62 4.89Q34.19 5.18 34.55 5.71L34.55 5.71L34.55 5.71Q34.97 5.19 35.60 4.90L35.60 4.90L35.60 4.90Q36.23 4.61 37.00 4.61L37.00 4.61ZM48.96 8.39L48.96 8.39Q48.96 8.65 48.78 8.83L48.78 8.83L48.78 8.83Q48.59 9.00 48.31 9.00L48.31 9.00L42.99 9.00L42.99 9.00Q43.15 9.98 43.88 10.58L43.88 10.58L43.88 10.58Q44.62 11.19 45.68 11.19L45.68 11.19L45.68 11.19Q46.10 11.19 46.56 11.03L46.56 11.03L46.56 11.03Q47.01 10.88 47.31 10.65L47.31 10.65L47.31 10.65Q47.50 10.50 47.77 10.50L47.77 10.50L47.77 10.50Q48.03 10.50 48.19 10.64L48.19 10.64L48.19 10.64Q48.44 10.85 48.44 11.12L48.44 11.12L48.44 11.12Q48.44 11.37 48.22 11.54L48.22 11.54L48.22 11.54Q47.74 11.91 47.03 12.15L47.03 12.15L47.03 12.15Q46.33 12.39 45.68 12.39L45.68 12.39L45.68 12.39Q44.53 12.39 43.62 11.89L43.62 11.89L43.62 11.89Q42.71 11.40 42.20 10.51L42.20 10.51L42.20 10.51Q41.69 9.63 41.69 8.51L41.69 8.51L41.69 8.51Q41.69 7.39 42.17 6.50L42.17 6.50L42.17 6.50Q42.66 5.61 43.52 5.12L43.52 5.12L43.52 5.12Q44.38 4.62 45.47 4.62L45.47 4.62L45.47 4.62Q46.55 4.62 47.33 5.10L47.33 5.10L47.33 5.10Q48.12 5.57 48.54 6.43L48.54 6.43L48.54 6.43Q48.96 7.28 48.96 8.39L48.96 8.39ZM45.47 5.82L45.47 5.82Q44.45 5.82 43.81 6.38L43.81 6.38L43.81 6.38Q43.18 6.94 43.01 7.88L43.01 7.88L47.67 7.88L47.67 7.88Q47.54 6.94 46.97 6.38L46.97 6.38L46.97 6.38Q46.40 5.82 45.47 5.82L45.47 5.82ZM53.47 4.62L53.47 4.62Q54.38 4.62 55.10 4.91L55.10 4.91L55.10 4.91Q55.82 5.21 56.24 5.73L56.24 5.73L56.24 5.73Q56.42 5.95 56.42 6.17L56.42 6.17L56.42 6.17Q56.42 6.41 56.18 6.61L56.18 6.61L56.18 6.61Q56.03 6.72 55.79 6.72L55.79 6.72L55.79 6.72Q55.43 6.72 55.13 6.45L55.13 6.45L55.13 6.45Q54.78 6.13 54.39 6.00L54.39 6.00L54.39 6.00Q54.00 5.87 53.44 5.87L53.44 5.87L53.44 5.87Q52.79 5.87 52.38 6.08L52.38 6.08L52.38 6.08Q51.97 6.30 51.97 6.69L51.97 6.69L51.97 6.69Q51.97 6.97 52.11 7.16L52.11 7.16L52.11 7.16Q52.25 7.35 52.64 7.51L52.64 7.51L52.64 7.51Q53.03 7.67 53.77 7.83L53.77 7.83L53.77 7.83Q55.30 8.13 55.94 8.68L55.94 8.68L55.94 8.68Q56.57 9.23 56.57 10.09L56.57 10.09L56.57 10.09Q56.57 10.74 56.22 11.26L56.22 11.26L56.22 11.26Q55.87 11.79 55.20 12.09L55.20 12.09L55.20 12.09Q54.52 12.39 53.56 12.39L53.56 12.39L53.56 12.39Q52.61 12.39 51.77 12.10L51.77 12.10L51.77 12.10Q50.93 11.80 50.46 11.33L50.46 11.33L50.46 11.33Q50.27 11.14 50.27 10.89L50.27 10.89L50.27 10.89Q50.27 10.56 50.55 10.35L50.55 10.35L50.55 10.35Q50.82 10.15 51.04 10.15L51.04 10.15L51.04 10.15Q51.32 10.15 51.58 10.40L51.58 10.40L51.58 10.40Q51.84 10.70 52.37 10.91L52.37 10.91L52.37 10.91Q52.91 11.13 53.51 11.13L53.51 11.13L53.51 11.13Q54.31 11.13 54.75 10.86L54.75 10.86L54.75 10.86Q55.19 10.60 55.19 10.15L55.19 10.15L55.19 10.15Q55.19 9.72 54.75 9.43L54.75 9.43L54.75 9.43Q54.32 9.14 53.28 8.95L53.28 8.95L53.28 8.95Q50.60 8.43 50.60 6.73L50.60 6.73L50.60 6.73Q50.60 6.05 51.00 5.57L51.00 5.57L51.00 5.57Q51.41 5.10 52.07 4.86L52.07 4.86L52.07 4.86Q52.72 4.62 53.47 4.62L53.47 4.62Z"></path></g><defs data-v-29081953=""><!----></defs><g data-v-29081953="" id="8a28e1d6-3b4f-4651-bc1e-4650b31b4864" stroke="none" fill="#ffffff" transform="matrix(1.0358632741973193,0,0,1.0358632741973193,98.14680305346546,63.310351247068645)"><path d="M27.159 78.945c7.414-3.59 18.067-11.203 29.313-22.434 8.445-8.435 15.599-17.303 20.143-24.972a56.044 56.044 0 0 0 2.458-4.595C72.288 18.454 61.855 13 50.167 13c-20.402 0-37 16.598-37 37 0 11.711 5.475 22.16 13.992 28.945zM50.543 86.99c20.107-.202 36.42-16.52 36.614-36.63-4.851 6.591-10.606 13.281-17.084 19.75-6.396 6.389-13.01 12.075-19.53 16.88z"></path><path d="M96.963 3.096c-6.135-6.127-20.19-2.853-36.331 7.128 4.798 1.168 9.25 3.151 13.203 5.914 4.457-1.828 8.616-1.82 10.253-.185 2.379 2.375 1.308 7.779-2.37 14.75l-.028-.048c-4.305 8.177-12.211 18.521-22.391 28.688C49.24 69.388 39.006 77.218 30.863 81.552l.026.016c-7.085 3.766-12.582 4.88-14.985 2.479-1.888-1.885-1.61-5.684.533-10.845-2.77-3.974-4.759-8.419-5.916-13.192C.476 76.178-3.015 90.867 3.031 96.905c9.555 9.542 38.331-3.721 64.269-29.625 25.938-25.903 39.219-54.642 29.663-64.184z"></path></g><!----></svg>