<svg data-v-29081953="" xmlns="http://www.w3.org/2000/svg" viewBox="0 0 300 300"><!----><defs data-v-29081953=""><linearGradient data-v-29081953="" gradientTransform="rotate(25)" id="6636e2f4-fe84-4113-973a-d351c3fd95e3" x1="0%" y1="0%" x2="100%" y2="0%"><stop data-v-29081953="" offset="0%" stop-color="#49247E" stop-opacity="1"></stop><stop data-v-29081953="" offset="100%" stop-color="#AA49C7" stop-opacity="1"></stop></linearGradient></defs><rect data-v-29081953="" fill="url(#6636e2f4-fe84-4113-973a-d351c3fd95e3)" x="0" y="0" width="300px" height="300px" class="logo-background-square"></rect><!----><defs data-v-29081953=""><!----></defs><g data-v-29081953="" id="6b5cd81f-fa0a-47ce-87d4-6760c49b13bc" fill="#ffffff" stroke="none" transform="matrix(2.199803301279518,0,0,2.199803301279518,39.88234580159918,40.00949088109493)"><path d="M27.159 78.945c7.414-3.59 18.067-11.203 29.313-22.434 8.445-8.435 15.599-17.303 20.143-24.972a56.044 56.044 0 0 0 2.458-4.595C72.288 18.454 61.855 13 50.167 13c-20.402 0-37 16.598-37 37 0 11.711 5.475 22.16 13.992 28.945zM50.543 86.99c20.107-.202 36.42-16.52 36.614-36.63-4.851 6.591-10.606 13.281-17.084 19.75-6.396 6.389-13.01 12.075-19.53 16.88z"></path><path d="M96.963 3.096c-6.135-6.127-20.19-2.853-36.331 7.128 4.798 1.168 9.25 3.151 13.203 5.914 4.457-1.828 8.616-1.82 10.253-.185 2.379 2.375 1.308 7.779-2.37 14.75l-.028-.048c-4.305 8.177-12.211 18.521-22.391 28.688C49.24 69.388 39.006 77.218 30.863 81.552l.026.016c-7.085 3.766-12.582 4.88-14.985 2.479-1.888-1.885-1.61-5.684.533-10.845-2.77-3.974-4.759-8.419-5.916-13.192C.476 76.178-3.015 90.867 3.031 96.905c9.555 9.542 38.331-3.721 64.269-29.625 25.938-25.903 39.219-54.642 29.663-64.184z"></path></g><!----></svg>